<?xml version="1.0" encoding="UTF-8"?>
<svg version="1.1" viewBox="0 0 2048 2048" width="1280" height="1280" xmlns="http://www.w3.org/2000/svg">
<path transform="translate(1830,155)" d="m0 0 21 2 15 4 15 6 12 7 10 8 13 13 10 15 10 21 4 17 1 8v18l-3 23-7 48-5 32-6 36-10 70-6 36-7 49-9 57-9 62-8 50-7 49-8 49-8 57-7 41-7 51-8 50-7 49-11 69-8 57-7 41-7 51-8 49-6 42-9 57-7 49-8 52-4 25-5 35-5 19-6 15-7 14-10 13-13 13-10 7-15 7-21 7-9 2-15 1-18-2-17-4-33-11-92-32-43-15-41-14-39-14-90-30-5-1-5 3-12 12-10 8-15 13-8 8-11 9-12 11-8 7-11 10-11 9-17 16-10 9-16 14h-2v2l-8 7-10 9-8 7-14 12-12 11-11 9-16 15-11 10-8 7-14 12-9 9-8 7-14 12-10 9-13 10-15 10-16 9-15 5-24 4h-12l-15-2-15-4-14-6-17-12-15-15-11-16-8-18-4-13-2-15-1-18-1-357-12-5-47-16-77-27-35-12-27-9-34-12-38-13-27-9-43-15-56-19-43-15-72-24-41-14-21-8-19-9-11-8-10-9-9-10-10-16-7-15-5-17-3-19 2-16 6-20 7-16 6-9 11-14 8-7h2v-2l12-9 22-12 23-12 68-36 42-22 65-34 24-13 38-20 39-20 22-12 27-14 19-10 27-14 29-15 20-11 16-8 28-15 78-41 28-15 42-22 66-34 22-12 31-16 19-10 65-34 22-12 38-20 33-17 34-18 42-22 23-12 35-18 34-18 28-15 40-21 32-17 25-13 19-10 24-13 45-23 28-15 25-13 22-12 20-10 22-12 20-10 14-8 16-8 24-13 23-12 22-12 39-20 19-9 22-7 11-2zm-178 226v3zm-4 2-15 8 4 2 5 1 9-9-1-2zm-17 9m-1 1m4 0m-6 1m12 0m-14 1m9-1-6 2 4 2 4 1 1-2zm4 1m-15 1-5 3-16 8-32 17-45 23-29 15-22 12-42 22-50 26-19 10-23 12-22 12-58 30-19 10-20 11-16 8-28 15-24 12-19 10-23 12-22 12-15 8-12 6-36 19-16 8-28 15-23 12-22 12-15 8-16 8-54 28-22 12-16 8-19 10-42 22-23 12-16 9-16 8-28 15-27 14-37 19-10 6-16 8-25 13-22 12-26 13-19 10-29 15-32 17-40 21-32 17-18 10-16 8-14 8-23 12-19 9 3 3 24 8 20 7 47 16 41 14 23 8 20 7 47 16 29 10 34 12 33 11 38 13 27 9 43 15 68 23 13 5 7 1 10-9 12-11 9-9v-2h2l7-8 13-13 7-8 5-5v-2h2l7-8 21-21 7-8 21-21v-2h2l7-8 14-14v-2l3-1 7-8 13-13 7-8 8-8 7-8 10-10 7-8 25-25 7-8 9-9 7-8 19-19 7-8 15-15 6-7 23-23 7-8 10-10 7-8 21-21 7-8 13-13v-2h2v-2h2v-2l4-2 12-13 10-10 7-8 9-9v-2h2v-2h2v-2h2v-2h2v-2h2l7-8 10-10 7-8 20-20v-2h2l7-8 13-13 7-8 9-9v-2h2v-2h2v-2l4-2 7-8 7-7 7-8 9-9v-2h2l7-8 10-10v-2l3-1 6-7 18-18v-2h2l7-8 10-10 7-8 23-23 7-8 25-25 7-8 8-8v-2h2l6-7 5-5 10-11 25-25 6-7 23-23 7-8 10-10v-2h2l5-6 23-23 5-6 2-1v-2l4-2v-3h3v-3l-7-1 4-3-1-3zm14 0m-8 3m4 0 1 2 1-2zm-7 2m160 26-5 4-6 7v2l-3 1-5 5v2l-4 2-7 8-8 8-7 8-28 28-7 8-15 15v2l-4 2-7 8-13 13-7 8-11 11-7 8-11 11v2h-2v2h-2v2h-2v2h-2l-7 8-11 11-7 8-10 10-7 8-17 17-7 8-16 16-7 8-15 15-7 8-9 9v2h-2l-7 8-13 13-6 7-22 22-7 8-10 10-7 8-18 18v2l-3 1-7 8-13 13-5 6-22 22-7 8-15 15v2l-4 2v2h-2l-7 8-11 11v2h-2l-7 8-23 23-7 8-13 13v2h-2l-7 8-15 15v2h-2l-7 8-9 9-7 8-13 13-7 8-15 15v2h-2l-7 8-15 15v2l-3 1-7 8-10 10v2h-2l-7 8-13 13-5 6-23 23-7 8-11 11-7 8-17 17v2l-3 1-7 8-12 12-7 8-21 21-7 8-44 44-7 8-14 15-3 3v2l17 6 20 6 29 10 36 13 36 12 47 16 40 14 36 12 34 12 21 7 82 28 37 13 33 11 41 14 93 32 46 16 25 10 17 6 5-1 2-12 2-17 14-90 11-71 15-100 7-46 14-91 7-47 10-65 10-66 12-80 9-58 10-67 7-46 15-98 12-80 11-71 6-35zm-906 1030 1 278 5-1 9-6 12-12 11-9 10-10 8-7 10-9 11-9 8-8 8-7 14-13 8-7 17-16 14-12 7-7 11-9 14-13 8-7 13-10 10-9 12-9 4-7-1-4-11-5-25-8-49-17-25-9-41-14-43-14-19-7-8-3z" fill="#fff"/>
<path transform="translate(1620,409)" d="m0 0" fill="#fff"/>
<path transform="translate(1624,405)" d="m0 0" fill="#fff"/>
<path transform="translate(1642,389)" d="m0 0 2 1z" fill="#fff"/>
<path transform="translate(1620,399)" d="m0 0" fill="#fff"/>
<path transform="translate(1625,398)" d="m0 0" fill="#fff"/>
<path transform="translate(1633,396)" d="m0 0" fill="#fff"/>
<path transform="translate(1637,390)" d="m0 0" fill="#fff"/>
<path transform="translate(1648,385)" d="m0 0" fill="#fff"/>
<path transform="translate(1649,384)" d="m0 0" fill="#fff"/>
</svg>
